PathFileType	4	(X/Y/Z)	/Users/whiskymisky/masters/Sports2D_results/trial_4_Sports2D/trial_4_Sports2D_m_person00.trc
DataRate	CameraRate	NumFrames	NumMarkers	Units	OrigDataRate	OrigDataStartFrame	OrigNumFrames
50	50	9	22	m	50	274	1098
Frame#	Time	Hip			RHip			RKnee			RAnkle			RBigToe			RSmallToe			RHeel			LHip			LKnee			LAnkle			LBigToe			LSmallToe			LHeel			Neck			Head			Nose			RShoulder			RElbow			RWrist			LShoulder			LElbow			LWrist		
		X1	Y1	Z1	X2	Y2	Z2	X3	Y3	Z3	X4	Y4	Z4	X5	Y5	Z5	X6	Y6	Z6	X7	Y7	Z7	X8	Y8	Z8	X9	Y9	Z9	X10	Y10	Z10	X11	Y11	Z11	X12	Y12	Z12	X13	Y13	Z13	X14	Y14	Z14	X15	Y15	Z15	X16	Y16	Z16	X17	Y17	Z17	X18	Y18	Z18	X19	Y19	Z19	X20	Y20	Z20	X21	Y21	Z21	X22	Y22	Z22
274	5.48	4.286604701146296	0.8440546669222609	0.0301	4.156511182967425	0.865086831510869	0.0301	3.870353296480205	0.5302667278786122	0.129	3.638364646343617	0.2215045200425803	0.023	3.5820795602100173	0.11489838364742043	0.2179	3.5202438834367764	0.15944695467199044	0.1804	3.638133231723697	0.1707269170773951	-0.0119	4.381771346575932	0.7614104039261215	0.0301	4.262349571682895	0.35639135927802085	0.129	4.165633129591949	0.024544372839441345	0.023	4.167935750793472	-0.09941525861012705	0.2179	4.217747450633261	-0.09695537025787218	0.1804	4.124500473738134	-0.004484742028943595	-0.0119	4.5462093163338375	1.3889528925916363	0.0008	4.641946979042827	1.658803640818014	0.0655	4.552747734612952	1.508564258947443	0.1076	4.346204658318873	1.380708759541346	-0.01275	4.14092309458132	1.1806379847538597	0.0702	4.197692883200042	1.0569563187643067	0.1076	4.697738671188094	1.241018097253341	-0.01275	4.654366825080912	0.9641023379507064	0.0702	4.51978086272054	0.8601975222263561	0.1076
275	5.5	4.287506119863466	0.8456442806094532	0.0301	4.157611624982754	0.8665901502466881	0.0301	3.8697194640509083	0.5310471590185172	0.129	3.6377494289621053	0.22228127875698284	0.023	3.5806724983590104	0.11475003852860985	0.2179	3.5192618529161575	0.1596080098990398	0.1804	3.6378226752598803	0.17067941849817939	-0.0119	4.382646037757457	0.7628625039519517	0.0301	4.262485673876712	0.35712685128145655	0.129	4.165634314618979	0.02536747556469486	0.023	4.166540276053537	-0.09852478836141809	0.2179	4.216461004172811	-0.09668656510924525	0.1804	4.124894548561121	-0.004102197730094255	-0.0119	4.545518618374048	1.3884181085106662	0.0008	4.642060460257901	1.6579184644354044	0.0655	4.554122142476659	1.5086117685462428	0.1076	4.346422195195059	1.3808353385649812	-0.01275	4.140007723554874	1.1807245123346786	0.0702	4.199014079216071	1.05575912666191	0.1076	4.698366860616306	1.2417896039008747	-0.01275	4.653947098649202	0.963402285524824	0.0702	4.519009619359046	0.8636504910393724	0.1076
276	5.5200000000000005	4.288543028124489	0.8478949363483465	0.0301	4.159012338826635	0.8685940481808503	0.0301	3.869335682204675	0.5323515725338795	0.129	3.637462592286585	0.22297255276299552	0.023	3.5794231588368612	0.1146780409828594	0.2179	3.518290387239352	0.15935207620947217	0.1804	3.6375028743326605	0.17081317051170378	-0.0119	4.383534040557612	0.7648722973976632	0.0301	4.262697061272606	0.35838074823455185	0.129	4.165918835787525	0.026285640341788166	0.023	4.1649463268761275	-0.09793522587146342	0.2179	4.215244450127483	-0.09665998690946014	0.1804	4.125101632797789	-0.003580614053506712	-0.0119	4.545297235397343	1.3882125004707826	0.0008	4.6418806133756325	1.656995113075988	0.0655	4.554543212038509	1.5090874822931877	0.1076	4.346942886222614	1.381402226988287	-0.01275	4.139048709945113	1.1807332700199653	0.0702	4.200456918877914	1.054875880809562	0.1076	4.698839166564186	1.2424663833683456	-0.01275	4.653242095505654	0.9627705545677518	0.0702	4.518213755287915	0.8674630994186511	0.1076
277	5.54	4.2892364063006	0.8500016530312684	0.0301	4.159899692209491	0.8703387094355651	0.0301	3.869262483262208	0.5333258032050752	0.129	3.6372064617332844	0.22316985015428728	0.023	3.5788424942510804	0.11448130947485075	0.2179	3.5176657515891234	0.15851717704106882	0.1804	3.637027025182074	0.17088252620070427	-0.0119	4.384018168479482	0.766919069012545	0.0301	4.262667294692809	0.35930549084201496	0.129	4.165991764837106	0.02668511554253412	0.023	4.163718824001398	-0.09751104227378905	0.2179	4.214443424955825	-0.09653156651681138	0.1804	4.124661904214195	-0.0033707745756206002	-0.0119	4.545370322950002	1.3883063522993186	0.0008	4.641588070815976	1.6563176613650807	0.0655	4.554221427913489	1.5099757703604224	0.1076	4.347581735256953	1.38218296714721	-0.01275	4.138349495415344	1.1804752104184215	0.0702	4.202031436311914	1.0543866379541493	0.1076	4.698932022275764	1.2427584970840506	-0.01275	4.65259157208835	0.9619668987506683	0.0702	4.516974956394029	0.8717055098923332	0.1076
278	5.5600000000000005	4.289445345114505	0.8511296181231381	0.0301	4.159812052864344	0.8712998435732708	0.0301	3.8693594603456276	0.533731427490326	0.129	3.6370538820837295	0.2231555985760941	0.023	3.5786429885214703	0.11410540074498035	0.2179	3.517407580076418	0.15751504017721937	0.1804	3.6366688965938296	0.17083459719702002	-0.0119	4.38399977814381	0.7683760063437054	0.0301	4.262334412713091	0.3595203083741166	0.129	4.165684062986928	0.026441167860331422	0.023	4.162943007663615	-0.09705836245701324	0.2179	4.213877955901871	-0.09612421382210011	0.1804	4.12377147466849	-0.0035993605467113583	-0.0119	4.545737068157017	1.3884299206524386	0.0008	4.641452832266373	1.656074514463515	0.0655	4.55405822989814	1.5108219871668165	0.1076	4.347880112622667	1.3828404591415455	-0.01275	4.138058945132883	1.1801838106232339	0.0702	4.2036312518260885	1.0539945037617817	0.1076	4.698782436063497	1.2426165396557478	-0.01275	4.652151331740047	0.9609677016359537	0.0702	4.5155637567756335	0.8761145038332421	0.1076
279	5.58	4.289462925964599	0.8512444456060343	0.0301	4.1590690649074435	0.871640954617497	0.0301	3.869402704415824	0.5339484370595671	0.129	3.6371720797777853	0.22328770308965956	0.023	3.578338408273076	0.11385339309418635	0.2179	3.5173813874176485	0.1568820846053148	0.1804	3.636680422545932	0.17078869425085286	-0.0119	4.38371493527924	0.7691111074785764	0.0301	4.262062627309796	0.35929730129143306	0.129	4.165055094693195	0.025963717805871873	0.023	4.162534179502511	-0.09667745525144675	0.2179	4.213356135519976	-0.09558990460213301	0.1804	4.122881034425468	-0.004013499345246404	-0.0119	4.5463731805082865	1.3884733373517268	0.0008	4.641516677804224	1.6562336748833344	0.0655	4.554539379479687	1.5113556058379094	0.1076	4.3476556819928005	1.3832155380769282	-0.01275	4.138004984864095	1.1802417361349486	0.0702	4.205187378074023	1.0533100727328628	0.1076	4.698607375874273	1.242243637314811	-0.01275	4.652032641130778	0.9600747253745887	0.0702	4.514242988660127	0.8805875595340613	0.1076
280	5.6000000000000005	4.28976861597396	0.8510748136966317	0.0301	4.158440956020117	0.8718634286274047	0.0301	3.869478868263189	0.5343041638855017	0.129	3.6373543880908894	0.22334534284793134	0.023	3.5780516640900673	0.11406967741460702	0.2179	3.5176078252203515	0.1567909846299853	0.1804	3.636757014879098	0.1707736237141224	-0.0119	4.383394893112357	0.7694716455756553	0.0301	4.26215525960446	0.35912543317593043	0.129	4.164208583845218	0.025700383359868652	0.023	4.162562768634522	-0.09666528877641753	0.2179	4.213100619491043	-0.09515346018014857	0.1804	4.1220382462130605	-0.004265179376591455	-0.0119	4.547056551922307	1.3885667757224212	0.0008	4.641645622587837	1.6565093702740672	0.0655	4.555244354371796	1.5117178458204596	0.1076	4.347186487695683	1.3833476421927704	-0.01275	4.13794684994781	1.1804621938302302	0.0702	4.206880973956641	1.0522133656706651	0.1076	4.6985034640125285	1.241877832993266	-0.01275	4.6522693879726	0.9595540364715605	0.0702	4.512828440627914	0.8853649466369045	0.1076
281	5.62	4.290556752885527	0.851153410694492	0.0301	4.15843992768185	0.8722248429841819	0.0301	3.8698143150048923	0.5349246142380802	0.129	3.637406728292615	0.22315308445641255	0.023	3.578059392761327	0.1146628004332601	0.2179	3.5181176258210995	0.1570800040278295	0.1804	3.6365191281922566	0.17088060911532887	-0.0119	4.383109507381247	0.7697227089005759	0.0301	4.2625414615628925	0.3593279662428246	0.129	4.163457894333973	0.02597980752893236	0.023	4.1629218362984295	-0.09709401681236329	0.2179	4.213228998756515	-0.09489757449312322	0.1804	4.121149310705631	-0.003942342469170357	-0.0119	4.547535804629354	1.3887464673065177	0.0008	4.641877592118662	1.6566301519016366	0.0655	4.5556512683295916	1.5120283239531778	0.1076	4.346856602682176	1.3833161720291312	-0.01275	4.137766191913625	1.1802971762029626	0.0702	4.209026351138026	1.0507705019419746	0.1076	4.698527098250084	1.2415876033353295	-0.01275	4.652534144514978	0.959236848506588	0.0702	4.511143165473907	0.8902066917298707	0.1076
282	5.64	4.291539875291275	0.8514116075489409	0.0301	4.159044198384248	0.8727194294959103	0.0301	3.870321143290347	0.5358780786395247	0.129	3.637507220091746	0.2231404973677568	0.023	3.5780715765928055	0.11532378899887706	0.2179	3.518713733111482	0.15755668066101924	0.1804	3.636169820244147	0.17132298967761336	-0.0119	4.382972599577978	0.7698682894345324	0.0301	4.262946800664801	0.35994479403919166	0.129	4.163227529665987	0.02687153461349496	0.023	4.163161477055911	-0.09772677840919808	0.2179	4.213352428623427	-0.09491219612622283	0.1804	4.12044992080985	-0.0028553890885178504	-0.0119	4.547745720779529	1.3888453065328867	0.0008	4.642331528106058	1.6566047978392948	0.0655	4.5558751180946455	1.5122026100645383	0.1076	4.346873261072706	1.3832098026013895	-0.01275	4.137514313679758	1.17967640742092	0.0702	4.2116280059420435	1.0491514942841598	0.1076	4.698655535849913	1.2413507968341158	-0.01275	4.652343503301939	0.9588595754636493	0.0702	4.509272371105584	0.8941139254587891	0.1076
